<svg xmlns="http://www.w3.org/2000/svg" viewBox="0 0 512 512" role="img" aria-label="処世術禄 アイコン マスカブル">
  <rect width="512" height="512" fill="#3f151c"/>
  <g transform="translate(56 56) scale(0.78)">
    <defs>
      <radialGradient id="bg" cx="30%" cy="20%" r="80%">
        <stop offset="0%" stop-color="#7e2d38"/>
        <stop offset="60%" stop-color="#5f1f28"/>
        <stop offset="100%" stop-color="#3f151c"/>
      </radialGradient>
      <linearGradient id="ring" x1="0" x2="1">
        <stop offset="0%" stop-color="#f5e0c4"/>
        <stop offset="50%" stop-color="#d6b78e"/>
        <stop offset="100%" stop-color="#f3dcc0"/>
      </linearGradient>
      <filter id="softShadow" x="-20%" y="-20%" width="140%" height="140%">
        <feDropShadow dx="0" dy="14" stdDeviation="18" flood-color="#25080d" flood-opacity="0.5"/>
      </filter>
    </defs>
    <rect x="12" y="12" width="488" height="488" rx="110" fill="url(#bg)"/>
    <g stroke="#f3cc7a" stroke-width="10" stroke-linecap="round" opacity="0.95">
      <path d="M98 170 L170 210 L170 120"/>
      <path d="M414 170 L342 210 L342 120"/>
      <path d="M96 348 L170 302 L170 392"/>
      <path d="M414 348 L342 302 L342 392"/>
      <path d="M256 90 L256 140"/>
      <path d="M256 372 L256 422"/>
    </g>
    <g fill="#fff2cf" opacity="0.95">
      <circle cx="98" cy="170" r="10"/>
      <circle cx="170" cy="210" r="10"/>
      <circle cx="170" cy="120" r="10"/>
      <circle cx="414" cy="170" r="10"/>
      <circle cx="342" cy="210" r="10"/>
      <circle cx="342" cy="120" r="10"/>
      <circle cx="96" cy="348" r="10"/>
      <circle cx="170" cy="302" r="10"/>
      <circle cx="170" cy="392" r="10"/>
      <circle cx="414" cy="348" r="10"/>
      <circle cx="342" cy="302" r="10"/>
      <circle cx="342" cy="392" r="10"/>
    </g>
    <g filter="url(#softShadow)">
      <circle cx="256" cy="256" r="146" fill="url(#ring)"/>
      <circle cx="256" cy="256" r="120" fill="#f7efe3"/>
    </g>
    <g stroke="#8d6a58" stroke-width="6" stroke-linecap="round">
      <path d="M256 138 L256 168"/>
      <path d="M256 344 L256 374"/>
      <path d="M138 256 L168 256"/>
      <path d="M344 256 L374 256"/>
    </g>
    <g>
      <polygon points="256,150 316,238 256,256" fill="#d6453f"/>
      <polygon points="256,362 196,274 256,256" fill="#f7b847"/>
    </g>
    <circle cx="256" cy="256" r="18" fill="#c7a78c" stroke="#8f6d58" stroke-width="4"/>
  </g>
</svg>
