<svg xmlns="http://www.w3.org/2000/svg" viewBox="0 0 1200 520" role="img" aria-label="羅針盤背景">
  <defs>
    <linearGradient id="glow" x1="0" x2="1">
      <stop offset="0%" stop-color="#f4d2b6" stop-opacity="0.45"/>
      <stop offset="100%" stop-color="#f0c9ad" stop-opacity="0.05"/>
    </linearGradient>
    <radialGradient id="pulse" cx="50%" cy="50%" r="50%">
      <stop offset="0%" stop-color="#f7d7bf" stop-opacity="0.25"/>
      <stop offset="100%" stop-color="#f7d7bf" stop-opacity="0"/>
    </radialGradient>
  </defs>
  <rect width="1200" height="520" fill="transparent"/>
  <circle cx="760" cy="260" r="220" fill="url(#pulse)"/>
  <circle cx="760" cy="260" r="190" fill="none" stroke="url(#glow)" stroke-width="6"/>
  <circle cx="760" cy="260" r="140" fill="none" stroke="#f2c8a6" stroke-opacity="0.25" stroke-width="4"/>
  <g stroke="#f5d2b4" stroke-opacity="0.25" stroke-width="6" stroke-linecap="round">
    <path d="M760 60 L760 120"/>
    <path d="M760 400 L760 460"/>
    <path d="M560 260 L620 260"/>
    <path d="M900 260 L960 260"/>
  </g>
  <g stroke="#f5d2b4" stroke-opacity="0.2" stroke-width="4">
    <path d="M180 120 L300 180 L300 90"/>
    <path d="M1060 120 L940 180 L940 90"/>
    <path d="M200 400 L320 340 L320 430"/>
    <path d="M1060 400 L940 340 L940 430"/>
  </g>
  <g fill="#fdf1d2" fill-opacity="0.25">
    <circle cx="180" cy="120" r="10"/>
    <circle cx="300" cy="180" r="10"/>
    <circle cx="300" cy="90" r="10"/>
    <circle cx="1060" cy="120" r="10"/>
    <circle cx="940" cy="180" r="10"/>
    <circle cx="940" cy="90" r="10"/>
    <circle cx="200" cy="400" r="10"/>
    <circle cx="320" cy="340" r="10"/>
    <circle cx="320" cy="430" r="10"/>
    <circle cx="1060" cy="400" r="10"/>
    <circle cx="940" cy="340" r="10"/>
    <circle cx="940" cy="430" r="10"/>
  </g>
  <g>
    <polygon points="760,140 820,250 760,260" fill="#f4b17f" fill-opacity="0.45"/>
    <polygon points="760,380 700,270 760,260" fill="#e8896c" fill-opacity="0.3"/>
  </g>
</svg>
